<?xml version="1.0" encoding="UTF-8" standalone="no"?>
<!-- Generator: Adobe Illustrator 16.0.4, SVG Export Plug-In . SVG Version: 6.00 Build 0)  -->

<svg
   xmlns:dc="http://purl.org/dc/elements/1.1/"
   xmlns:cc="http://creativecommons.org/ns#"
   xmlns:rdf="http://www.w3.org/1999/02/22-rdf-syntax-ns#"
   xmlns:svg="http://www.w3.org/2000/svg"
   xmlns="http://www.w3.org/2000/svg"
   xmlns:sodipodi="http://sodipodi.sourceforge.net/DTD/sodipodi-0.dtd"
   xmlns:inkscape="http://www.inkscape.org/namespaces/inkscape"
   version="1.1"
   id="Layer_1"
   x="0px"
   y="0px"
   width="512px"
   height="512px"
   viewBox="0 0 512 512"
   enable-background="new 0 0 512 512"
   xml:space="preserve"
   inkscape:version="0.48.4 r9939"
   sodipodi:docname="discardChanges.svg"><metadata
   id="metadata9"><rdf:RDF><cc:Work
       rdf:about=""><dc:format>image/svg+xml</dc:format><dc:type
         rdf:resource="http://purl.org/dc/dcmitype/StillImage" /><dc:title></dc:title></cc:Work></rdf:RDF></metadata><defs
   id="defs7" /><sodipodi:namedview
   pagecolor="#ffffff"
   bordercolor="#666666"
   borderopacity="1"
   objecttolerance="10"
   gridtolerance="10"
   guidetolerance="10"
   inkscape:pageopacity="0"
   inkscape:pageshadow="2"
   inkscape:window-width="1024"
   inkscape:window-height="708"
   id="namedview5"
   showgrid="false"
   inkscape:zoom="0.4609375"
   inkscape:cx="256"
   inkscape:cy="256"
   inkscape:window-x="-32000"
   inkscape:window-y="-32000"
   inkscape:window-maximized="0"
   inkscape:current-layer="Layer_1" />
<path
   d="m 303.16949,255.54237 114,114 c 13,13 13,33 0,46 -6,6 -15,10 -23,10 -8,0 -17,-4 -23,-10 l -114,-114 -114,114 c -6,6 -15,10 -23,10 -8,0 -17,-4 -22.999998,-10 -13,-13 -13,-33 0,-46 l 113.999998,-114 -113.999998,-114 c -13,-13 -13,-33 0,-45.999997 12.999998,-13 32.999998,-13 45.999998,0 l 114,113.999997 114,-113.999997 c 13,-13 33,-13 46,0 13,12.999997 13,32.999997 0,45.999997 l -114,114 z"
   id="path3"
   style="fill:#ff5555"
   inkscape:connector-curvature="0"
   inkscape:export-xdpi="8.4768209"
   inkscape:export-ydpi="8.4768209" />
</svg>