<?xml version="1.0" encoding="UTF-8" standalone="no"?>
<!-- Generator: Adobe Illustrator 15.0.0, SVG Export Plug-In . SVG Version: 6.00 Build 0)  -->

<svg
   xmlns:dc="http://purl.org/dc/elements/1.1/"
   xmlns:cc="http://creativecommons.org/ns#"
   xmlns:rdf="http://www.w3.org/1999/02/22-rdf-syntax-ns#"
   xmlns:svg="http://www.w3.org/2000/svg"
   xmlns="http://www.w3.org/2000/svg"
   xmlns:xlink="http://www.w3.org/1999/xlink"
   xmlns:sodipodi="http://sodipodi.sourceforge.net/DTD/sodipodi-0.dtd"
   xmlns:inkscape="http://www.inkscape.org/namespaces/inkscape"
   version="1.1"
   id="Layer_1"
   x="0px"
   y="0px"
   width="26px"
   height="26px"
   viewBox="0 0 26 26"
   enable-background="new 0 0 26 26"
   xml:space="preserve"
   inkscape:version="0.48.4 r9939"
   sodipodi:docname="gears.svg"><metadata
   id="metadata17"><rdf:RDF><cc:Work
       rdf:about=""><dc:format>image/svg+xml</dc:format><dc:type
         rdf:resource="http://purl.org/dc/dcmitype/StillImage" /><dc:title></dc:title></cc:Work></rdf:RDF></metadata><defs
   id="defs15"><linearGradient
     inkscape:collect="always"
     id="linearGradient3836"><stop
       style="stop-color:#ffce50;stop-opacity:1;"
       offset="0"
       id="stop3838" /><stop
       style="stop-color:#ffce50;stop-opacity:0;"
       offset="1"
       id="stop3840" /></linearGradient><linearGradient
     id="linearGradient3806"><stop
       id="stop3808"
       offset="0"
       style="stop-color:#ffffd8;stop-opacity:1;" /><stop
       id="stop3810"
       offset="1"
       style="stop-color:#ffdc33;stop-opacity:1;" /></linearGradient><linearGradient
     id="linearGradient3006"><stop
       id="stop3014"
       offset="0"
       style="stop-color:#000000;stop-opacity:1;" /><stop
       style="stop-color:#000000;stop-opacity:0.49803922;"
       offset="0.5"
       id="stop3018" /><stop
       style="stop-color:#000000;stop-opacity:0;"
       offset="1"
       id="stop3010" /></linearGradient><linearGradient
     inkscape:collect="always"
     xlink:href="#linearGradient3836"
     id="linearGradient3842"
     x1="2.751"
     y1="12.4415"
     x2="23.248"
     y2="12.4415"
     gradientUnits="userSpaceOnUse" /><linearGradient
     inkscape:collect="always"
     xlink:href="#linearGradient3806"
     id="linearGradient3850"
     x1="2.8611693"
     y1="19.161839"
     x2="18.951389"
     y2="8.0347204"
     gradientUnits="userSpaceOnUse" /><linearGradient
     inkscape:collect="always"
     xlink:href="#linearGradient3806"
     id="linearGradient3852"
     gradientUnits="userSpaceOnUse"
     x1="2.8611693"
     y1="19.161839"
     x2="18.951389"
     y2="8.0347204" /><linearGradient
     inkscape:collect="always"
     xlink:href="#linearGradient3806"
     id="linearGradient3854"
     gradientUnits="userSpaceOnUse"
     x1="2.8611693"
     y1="19.161839"
     x2="18.951389"
     y2="8.0347204" /><linearGradient
     inkscape:collect="always"
     xlink:href="#linearGradient3806"
     id="linearGradient3856"
     gradientUnits="userSpaceOnUse"
     x1="2.8611693"
     y1="19.161839"
     x2="18.951389"
     y2="8.0347204" /><linearGradient
     inkscape:collect="always"
     xlink:href="#linearGradient3806"
     id="linearGradient3858"
     gradientUnits="userSpaceOnUse"
     x1="2.8611693"
     y1="19.161839"
     x2="18.951389"
     y2="8.0347204" /></defs><sodipodi:namedview
   pagecolor="#ffffff"
   bordercolor="#666666"
   borderopacity="1"
   objecttolerance="10"
   gridtolerance="10"
   guidetolerance="10"
   inkscape:pageopacity="0"
   inkscape:pageshadow="2"
   inkscape:window-width="1024"
   inkscape:window-height="708"
   id="namedview13"
   showgrid="false"
   inkscape:zoom="9.0769231"
   inkscape:cx="13"
   inkscape:cy="13"
   inkscape:window-x="-4"
   inkscape:window-y="-4"
   inkscape:window-maximized="1"
   inkscape:current-layer="Layer_1" />
<g
   id="g3"
   style="fill:url(#linearGradient3850);fill-opacity:1;stroke:none"
   transform="translate(0.2203391,0)"
   inkscape:export-xdpi="254.6714"
   inkscape:export-ydpi="254.6714">
	<path
   d="m 17.004,13.025 v -1.318 c 0,-0.741 -0.445,-0.944 -1.887,-1.463 0.609,-1.389 0.768,-1.848 0.248,-2.362 L 14.414,6.954 C 14.229,6.772 13.963,6.664 13.7,6.664 c -0.177,0 -0.36,0 -1.671,0.584 C 11.455,5.832 11.239,5.396 10.522,5.396 H 9.177 C 8.469,5.396 8.256,5.79 7.701,7.257 6.368,6.704 6.181,6.704 6.014,6.704 5.751,6.704 5.485,6.812 5.302,6.992 L 4.349,7.924 C 3.817,8.447 4,8.937 4.626,10.269 3.157,10.841 2.751,11.039 2.751,11.761 v 1.319 c 0,0.741 0.445,0.945 1.886,1.464 -0.608,1.387 -0.765,1.846 -0.248,2.359 l 0.948,0.927 c 0.184,0.184 0.453,0.294 0.717,0.294 0.176,0 0.359,0 1.671,-0.585 0.575,1.416 0.79,1.853 1.508,1.853 h 1.346 c 0.707,0 0.921,-0.395 1.477,-1.863 1.334,0.556 1.52,0.556 1.686,0.556 0.262,0 0.528,-0.108 0.712,-0.288 l 0.959,-0.938 c 0.526,-0.523 0.344,-1.013 -0.282,-2.34 1.431,-0.559 1.873,-0.773 1.873,-1.494 z m -3.305,3.89 c -0.127,-0.034 -0.485,-0.152 -1.441,-0.556 l -0.22,-0.093 -0.878,0.355 -0.09,0.237 c -0.106,0.286 -0.408,1.091 -0.568,1.375 L 9.306,18.232 C 9.143,17.958 8.825,17.17 8.696,16.851 L 8.604,16.624 7.726,16.27 7.5,16.372 c -0.947,0.429 -1.294,0.55 -1.403,0.583 L 5.255,16.131 C 5.34,15.819 5.68,15.047 5.818,14.735 L 5.919,14.507 5.555,13.645 5.316,13.559 C 4.993,13.444 4.195,13.158 3.909,13.003 l 0,-1.166 C 4.188,11.68 4.967,11.378 5.323,11.24 L 5.552,11.151 5.916,10.288 5.805,10.055 C 5.674,9.78 5.31,9.009 5.216,8.694 L 6.056,7.872 C 6.183,7.906 6.542,8.022 7.5,8.426 L 7.72,8.52 8.596,8.165 8.685,7.927 C 8.791,7.641 9.093,6.837 9.252,6.552 l 1.196,0 c 0.163,0.275 0.481,1.063 0.61,1.382 l 0.092,0.227 0.877,0.355 0.227,-0.103 C 13.202,7.984 13.548,7.863 13.657,7.83 L 14.5,8.654 c -0.085,0.311 -0.426,1.083 -0.563,1.396 l -0.101,0.229 0.365,0.864 0.239,0.085 c 0.322,0.116 1.118,0.401 1.406,0.555 l -10e-4,1.163 c -0.283,0.162 -1.088,0.474 -1.414,0.601 l -0.229,0.089 -0.362,0.864 0.11,0.232 c 0.13,0.274 0.495,1.045 0.59,1.359 l -0.841,0.824 z"
   id="path5"
   style="fill:url(#linearGradient3852);fill-opacity:1;stroke:none"
   inkscape:connector-curvature="0" />
	<path
   d="m 9.878,10.31 c -1.173,0 -2.127,0.935 -2.127,2.084 0,1.149 0.954,2.085 2.127,2.085 1.173,0 2.127,-0.936 2.127,-2.085 0,-1.149 -0.954,-2.084 -2.127,-2.084 z m 0,3.012 c -0.535,0 -0.971,-0.417 -0.971,-0.928 0,-0.511 0.436,-0.927 0.971,-0.927 0.535,0 0.97,0.416 0.97,0.927 0,0.511 -0.435,0.928 -0.97,0.928 z"
   id="path7"
   style="fill:url(#linearGradient3854);fill-opacity:1;stroke:none"
   inkscape:connector-curvature="0" />
	<path
   d="m 22.385,15.3 c 0.279,-0.636 0.352,-0.846 0.114,-1.081 l -0.437,-0.425 c -0.084,-0.084 -0.206,-0.133 -0.326,-0.133 -0.081,0 -0.164,0 -0.765,0.268 -0.263,-0.648 -0.361,-0.848 -0.689,-0.848 h -0.615 c -0.324,0 -0.422,0.181 -0.676,0.852 -0.609,-0.253 -0.695,-0.253 -0.771,-0.253 -0.12,0 -0.242,0.05 -0.326,0.132 l -0.437,0.427 c -0.243,0.239 -0.159,0.464 0.127,1.073 -0.673,0.262 -0.857,0.353 -0.857,0.683 v 0.604 c 0,0.339 0.203,0.433 0.863,0.67 -0.278,0.635 -0.351,0.845 -0.114,1.08 l 0.434,0.424 c 0.085,0.084 0.208,0.134 0.329,0.134 0.08,0 0.164,0 0.765,-0.268 0.263,0.648 0.361,0.848 0.689,0.848 h 0.616 c 0.323,0 0.421,-0.18 0.676,-0.852 0.61,0.254 0.695,0.254 0.771,0.254 0.12,0 0.242,-0.05 0.326,-0.132 l 0.438,-0.43 c 0.241,-0.239 0.157,-0.463 -0.129,-1.07 0.655,-0.256 0.857,-0.354 0.857,-0.684 v -0.604 c 0,-0.339 -0.203,-0.432 -0.863,-0.669 z m 0.334,1.237 c -0.129,0.074 -0.498,0.217 -0.647,0.274 l -0.104,0.041 -0.166,0.395 0.051,0.107 c 0.06,0.125 0.227,0.478 0.27,0.622 l -0.385,0.376 c -0.059,-0.016 -0.223,-0.069 -0.66,-0.254 l -0.101,-0.043 -0.401,0.163 -0.041,0.108 c -0.049,0.131 -0.187,0.499 -0.26,0.629 h -0.548 c -0.074,-0.126 -0.221,-0.486 -0.279,-0.632 l -0.042,-0.104 -0.401,-0.163 -0.104,0.047 c -0.434,0.196 -0.593,0.251 -0.643,0.267 l -0.385,-0.378 c 0.039,-0.142 0.194,-0.495 0.257,-0.638 l 0.046,-0.105 -0.166,-0.394 -0.109,-0.04 c -0.147,-0.053 -0.513,-0.184 -0.644,-0.254 v -0.534 c 0.128,-0.071 0.484,-0.21 0.646,-0.273 l 0.105,-0.04 0.166,-0.396 -0.05,-0.106 c -0.061,-0.125 -0.227,-0.478 -0.27,-0.622 l 0.385,-0.376 c 0.058,0.015 0.222,0.068 0.66,0.254 l 0.101,0.043 0.401,-0.162 0.04,-0.109 c 0.05,-0.131 0.187,-0.499 0.26,-0.629 h 0.548 c 0.074,0.126 0.22,0.487 0.279,0.633 l 0.042,0.104 0.401,0.163 0.104,-0.047 c 0.434,-0.197 0.593,-0.252 0.643,-0.267 l 0.386,0.377 c -0.04,0.142 -0.195,0.495 -0.259,0.639 l -0.046,0.104 0.167,0.396 0.109,0.039 c 0.148,0.053 0.513,0.184 0.644,0.254 v 0.531 z"
   id="path9"
   style="fill:url(#linearGradient3856);fill-opacity:1;stroke:none"
   inkscape:connector-curvature="0" />
	<path
   d="m 19.987,15.33 c -0.536,0 -0.973,0.428 -0.973,0.953 0,0.526 0.437,0.954 0.973,0.954 0.537,0 0.974,-0.428 0.974,-0.954 0,-0.525 -0.437,-0.953 -0.974,-0.953 z m 0,1.378 c -0.245,0 -0.444,-0.19 -0.444,-0.425 0,-0.233 0.199,-0.424 0.444,-0.424 0.245,0 0.444,0.19 0.444,0.424 10e-4,0.235 -0.199,0.425 -0.444,0.425 z"
   id="path11"
   style="fill:url(#linearGradient3858);fill-opacity:1;stroke:none"
   inkscape:connector-curvature="0" />
</g>
</svg>